:SAMPLES-PER-SECOND 30
:FULLY-SPECIFIED
:DEGREES
16
root  83.6457 40.3821 -1.99194 177.557 -86.5707 -177.008
RightUpLeg  0.202681 -7.50215 -3.93799
RightLeg  2.66517 -3.76377 4.14951
RightFoot  -2.2121 0.155908 -2.13824
RightToes  0.00048216 0.542163 -0.142577
Spine  3.7964 0.832524 1.93663
Spine1  1.12171 1.32161 -2.30479
HEad  3.09718 1.69221 0.288334
LeftShoulder1  0.399906 1.36679 -11.2291
LeftArm  -19.017 4.37722 -2.85621
LeftForeArm  7.75101 0.0445638 -1.59058
LeftHand  -0.25398 0.0180481 5.50724
RightShoulder  0.307066 -1.37297 6.77262
RightArm  -22.0921 0.988098 1.34589
RightForeArm  -3.46863 -0.725642 2.81631
RightHand  -1.73836 5.8988 -18.1246
LeftUpLeg  -0.0455286 6.08951 3.64266
LeftLeg  3.01698 16.6123 -4.09326
LeftFoot  -3.91319 0.0196814 -0.00413496
LeftToes  1.06246e-005 4.65856e-005 -8.18505e-006
17
root  83.6455 40.3625 -1.92431 175.78 -86.4691 -175.205
RightUpLeg  0.0626199 -7.46416 -3.89779
RightLeg  2.84671 -3.67518 4.09105
RightFoot  -2.2937 0.140404 -1.97003
RightToes  0.00048216 0.542163 -0.142577
Spine  3.76934 0.758328 2.17268
Spine1  1.39693 1.24838 -2.26942
HEad  3.58918 2.09889 0.0655558
LeftShoulder1  0.375775 1.55086 -11.7654
LeftArm  -19.7821 4.71928 -3.0703
LeftForeArm  8.98501 -0.694909 -1.29081
LeftHand  -0.25398 0.0180481 5.50724
RightShoulder  0.29053 -1.46417 6.59275
RightArm  -23.1598 1.0999 2.2227
RightForeArm  -3.81579 -0.276361 2.5882
RightHand  -1.76993 5.86048 -18.5012
LeftUpLeg  -0.543291 6.07663 3.6313
LeftLeg  4.1557 16.7394 -3.68399
LeftFoot  -4.85443 0.0496662 -0.470118
LeftToes  1.06246e-005 4.65856e-005 -8.18505e-006
18
root  83.6304 40.3404 -1.82432 174.343 -86.2869 -173.967
RightUpLeg  0.187028 -7.5447 -4.00674
RightLeg  3.04076 -3.41881 4.08162
RightFoot  -2.38498 0.112511 -1.6424
RightToes  0.00048216 0.542163 -0.142577
Spine  3.50725 0.704786 2.76866
Spine1  2.2493 1.31503 -2.74011
HEad  4.25567 2.50431 0.0377403
LeftShoulder1  0.392592 1.52624 -12.4241
LeftArm  -21.1815 5.13778 -3.54488
LeftForeArm  9.42808 -1.85986 -0.84107
LeftHand  -0.25398 0.0180481 5.50724
RightShoulder  0.339652 -1.2075 7.18452
RightArm  -24.1508 0.668558 2.98106
RightForeArm  -5.33828 1.02516 2.56212
RightHand  -1.81047 5.7771 -19.0418
LeftUpLeg  -0.785385 5.99169 3.45914
LeftLeg  5.31085 17.13 -3.07412
LeftFoot  -5.86004 0.074754 -0.860017
LeftToes  1.06246e-005 4.65856e-005 -8.18505e-006
19
root  83.5987 40.316 -1.69813 173.46 -85.9089 -173.453
RightUpLeg  0.466094 -7.69953 -4.21582
RightLeg  3.32227 -2.9022 4.09191
RightFoot  -2.5144 0.0923982 -1.41814
RightToes  0.00048216 0.542163 -0.142577
Spine  3.57377 0.757804 3.30967
Spine1  2.78062 1.46515 -3.0659
HEad  5.41426 2.77376 -0.0713358
LeftShoulder1  0.465265 1.30671 -13.9203
LeftArm  -22.9295 5.68521 -3.86465
LeftForeArm  8.71448 -3.45955 -0.379236
LeftHand  -0.25398 0.0180481 5.50724
RightShoulder  0.454568 -0.610488 8.24793
RightArm  -24.852 -0.403076 3.74462
RightForeArm  -6.75532 3.29749 2.75972
RightHand  -1.86398 5.84928 -19.4637
LeftUpLeg  -0.666267 6.10342 3.2141
LeftLeg  6.18289 17.6015 -2.48734
LeftFoot  -6.77968 0.0776792 -0.905482
LeftToes  1.06246e-005 4.65856e-005 -8.18505e-006
20
root  83.5549 40.2894 -1.55639 172.612 -85.3961 -173.002
RightUpLeg  0.742582 -7.77604 -4.38278
RightLeg  3.6492 -2.27214 4.03382
RightFoot  -2.73396 0.0803818 -1.31456
RightToes  0.00048216 0.542163 -0.142577
Spine  4.09539 0.879249 3.5091
Spine1  2.6862 1.55351 -2.79953
HEad  7.13036 2.93476 -0.403193
LeftShoulder1  0.595515 0.970051 -16.4587
LeftArm  -24.4174 6.3668 -3.9934
LeftForeArm  7.03012 -5.24547 -0.106181
LeftHand  -0.25398 0.0180481 5.50724
RightShoulder  0.612055 0.144479 9.43243
RightArm  -25.3859 -1.85477 4.84711
RightForeArm  -6.61067 6.29315 3.06268
RightHand  -1.90804 6.04454 -19.5838
LeftUpLeg  -0.386219 6.3796 3.05618
LeftLeg  6.87321 17.9121 -2.08919
LeftFoot  -7.67813 0.072681 -0.848132
LeftToes  1.06246e-005 4.65856e-005 -8.18505e-006
21
root  83.5014 40.2625 -1.40194 171.584 -85.0242 -172.377
RightUpLeg  1.01889 -7.7671 -4.53867
RightLeg  4.04041 -1.84765 3.89495
RightFoot  -3.09072 0.0457621 -0.923272
RightToes  0.00048216 0.542163 -0.142577
Spine  4.09488 1.1571 4.10062
Spine1  3.36185 2.00866 -3.45404
HEad  8.84358 2.41535 -0.150765
LeftShoulder1  0.839569 0.0983519 -17.8253
LeftArm  -25.4288 6.75849 -5.59795
LeftForeArm  6.39449 -6.43408 -0.000618912
LeftHand  -0.25398 0.0180481 5.50724
RightShoulder  0.78817 0.594966 12.1589
RightArm  -25.5913 -3.64852 5.56894
RightForeArm  -5.97416 9.91969 3.53283
RightHand  -1.88964 5.97661 -19.5122
LeftUpLeg  -0.0669419 6.74404 2.97539
LeftLeg  7.53189 17.7876 -1.8338
LeftFoot  -8.61601 0.0762669 -1.03865
LeftToes  1.06246e-005 4.65856e-005 -8.18505e-006
22
root  83.4373 40.2272 -1.23659 170.615 -84.9223 -171.867
RightUpLeg  1.23193 -7.78842 -4.77061
RightLeg  4.8327 -1.69325 3.67093
RightFoot  -3.70359 -0.0114185 -0.20369
RightToes  0.00048216 0.542163 -0.142577
Spine  4.3815 1.06472 3.80132
Spine1  3.84127 1.76879 -2.73062
HEad  10.5518 2.7113 -0.508485
LeftShoulder1  1.006 -0.18389 -20.6316
LeftArm  -25.8214 7.01438 -6.95067
LeftForeArm  7.18457 -7.34663 -0.020032
LeftHand  -0.25398 0.0180481 5.50724
RightShoulder  1.03514 1.44493 14.0289
RightArm  -25.3278 -5.34204 7.36078
RightForeArm  -5.75121 13.7144 4.07755
RightHand  -1.84411 5.62993 -19.6282
LeftUpLeg  0.33005 7.09486 2.88926
LeftLeg  8.15302 17.409 -1.66804
LeftFoot  -9.54625 0.0787066 -1.36241
LeftToes  1.06246e-005 4.65856e-005 -8.18505e-006
23
root  83.3716 40.1591 -1.07156 170.316 -84.8685 -172.073
RightUpLeg  0.985881 -8.30412 -4.99413
RightLeg  6.6817 -1.0334 3.18545
RightFoot  -4.74149 -0.0543479 0.380235
RightToes  0.00048216 0.542163 -0.142577
Spine  4.18672 1.18723 3.73209
Spine1  5.1447 1.93821 -2.90535
HEad  11.7848 2.22976 -0.23037
LeftShoulder1  1.32843 -1.10131 -22.2972
LeftArm  -26.6132 6.77433 -9.36683
LeftForeArm  10.0822 -7.114 0.312298
LeftHand  -0.25398 0.0180481 5.50724
RightShoulder  1.33919 2.07034 17.396
RightArm  -24.2835 -7.156 8.56176
RightForeArm  -6.44597 17.4027 4.57067
RightHand  -1.82541 5.37083 -19.8789
LeftUpLeg  0.74812 7.46873 2.81714
LeftLeg  8.84375 17.1305 -1.62358
LeftFoot  -10.4442 0.0748517 -1.54294
LeftToes  1.06246e-005 4.65856e-005 -8.18505e-006
24
root  83.327 40.043 -0.916713 171.298 -84.586 -173.578
RightUpLeg  -0.290978 -10.1082 -5.039
RightLeg  10.2935 1.13707 2.19019
RightFoot  -5.99205 -0.087134 1.02207
RightToes  0.00048216 0.542163 -0.142577
Spine  5.07341 1.20501 2.85065
Spine1  5.15437 1.72593 -2.12719
HEad  12.9541 2.07653 -0.447311
LeftShoulder1  1.77827 -2.07235 -25.5954
LeftArm  -25.2973 6.72849 -10.9034
LeftForeArm  9.18341 -6.05143 -0.0262144
LeftHand  -0.25398 0.0180481 5.50724
RightShoulder  1.76148 3.09555 20.3193
RightArm  -22.5364 -8.7042 10.1388
RightForeArm  -6.09175 20.321 4.8897
RightHand  -1.83538 5.34741 -20.0258
LeftUpLeg  1.01382 7.98412 2.78235
LeftLeg  9.87013 17.0126 -1.66314
LeftFoot  -11.3396 0.0679569 -1.65975
LeftToes  1.06246e-005 4.65856e-005 -8.18505e-006
25
root  83.3186 39.8976 -0.767868 173.454 -84.0439 -176.339
RightUpLeg  -2.85085 -11.5591 -4.98241
RightLeg  15.9584 2.72695 0.94562
RightFoot  -6.50197 -0.158403 2.66848
RightToes  0.00048216 0.542163 -0.142577
Spine  5.99426 1.31078 2.37166
Spine1  5.75861 1.87267 -2.57977
HEad  13.3464 1.3978 -0.24906
LeftShoulder1  2.40008 -3.49489 -28.0382
LeftArm  -23.5718 6.40929 -13.181
LeftForeArm  7.96336 -4.44048 -0.530424
LeftHand  -0.25398 0.0180481 5.50724
RightShoulder  2.2176 3.84579 23.9672
RightArm  -20.9557 -9.72459 12.0898
RightForeArm  -4.59792 22.2546 5.04423
RightHand  -1.7903 5.20957 -19.7921
LeftUpLeg  1.15862 8.58348 2.67215
LeftLeg  11.2364 17.0166 -1.62799
LeftFoot  -12.1961 0.0595693 -1.82432
LeftToes  1.06246e-005 4.65856e-005 -8.18505e-006
26
root  83.3228 39.7727 -0.616448 175.303 -83.3711 -178.911
RightUpLeg  -6.22177 -9.86707 -5.19673
RightLeg  22.9174 0.483758 -0.0502418
RightFoot  -5.07647 -0.324811 5.21222
RightToes  0.00048216 0.542163 -0.142577
Spine  8.0982 1.17617 1.45546
Spine1  5.02132 1.57369 -2.27033
HEad  13.9204 1.75838 -0.686563
LeftShoulder1  3.28152 -5.06636 -32.1724
LeftArm  -21.5521 6.71256 -14.0522
LeftForeArm  7.83773 -3.3347 -1.11718
LeftHand  -0.25398 0.0180481 5.50724
RightShoulder  2.88039 5.13175 27.3183
RightArm  -18.5771 -10.4204 14.258
RightForeArm  -2.94406 22.7664 5.04416
RightHand  -1.66763 4.7981 -19.1908
LeftUpLeg  1.46824 9.09908 2.45131
LeftLeg  12.4509 17.2089 -1.45642
LeftFoot  -12.8919 0.0530204 -1.80655
LeftToes  1.06246e-005 4.65856e-005 -8.18505e-006
27
root  83.2856 39.6813 -0.479745 176.54 -82.6976 179.148
RightUpLeg  -9.8534 -8.62378 -5.47852
RightLeg  29.8618 -1.49474 -1.14552
RightFoot  -2.09474 -0.578024 6.99984
RightToes  0.00048216 0.542163 -0.142577
Spine  9.27332 0.974827 0.740264
Spine1  5.90293 1.30298 -2.22426
HEad  13.6591 2.77855 -0.999873
LeftShoulder1  4.17015 -6.52818 -35.4681
LeftArm  -20.4539 6.27803 -16.0885
LeftForeArm  8.69811 -2.40438 -1.47842
LeftHand  -0.25398 0.0180481 5.50724
RightShoulder  3.47664 6.11377 30.2024
RightArm  -16.5258 -10.2452 17.7038
RightForeArm  -0.91983 21.59 4.83142
RightHand  -1.50871 4.32047 -18.2363
LeftUpLeg  1.98585 9.50925 2.17474
LeftLeg  13.2888 17.5205 -1.21887
LeftFoot  -13.4986 0.0512225 -1.57917
LeftToes  1.06246e-005 4.65856e-005 -8.18505e-006
